<?xml version="1.0" standalone="no"?>
<!DOCTYPE svg PUBLIC "-//W3C//DTD SVG 20010904//EN"
 "http://www.w3.org/TR/2001/REC-SVG-20010904/DTD/svg10.dtd">
<svg version="1.0" xmlns="http://www.w3.org/2000/svg"
 width="620.626454pt" height="199.202077pt" viewBox="0 0 620.626454 199.202077"
 preserveAspectRatio="xMidYMid meet">
<metadata>
Created by potrace 1.12, written by Peter Selinger 2001-2015
</metadata>
<g transform="translate(-4.295191,242.419861) scale(0.100000,-0.100000)"
fill="#000000" stroke="none">
<path d="M4595 2416 c-88 -34 -93 -52 -35 -107 29 -28 39 -45 38 -66 -1 -15 2
-47 7 -70 5 -30 4 -43 -4 -43 -7 0 -9 -9 -6 -22 7 -31 1 -37 -80 -84 -130 -76
-133 -76 -238 -78 -69 -1 -100 -5 -106 -14 -5 -8 -21 -12 -37 -10 -21 2 -42
20 -80 68 -29 35 -58 66 -66 69 -7 2 -26 17 -43 33 -16 15 -40 28 -52 28 -12
0 -25 5 -28 10 -3 6 -27 10 -53 10 l-47 0 -26 -58 c-27 -57 -49 -201 -49 -313
0 -89 99 -261 229 -399 24 -25 62 -130 77 -212 4 -23 66 -147 91 -184 5 -6 21
-30 36 -53 32 -48 62 -85 95 -117 12 -12 22 -24 22 -26 0 -11 -74 -17 -92 -7
-12 6 -30 7 -53 0 -36 -10 -44 -4 -23 17 8 8 9 15 2 22 -7 7 -29 0 -70 -21
-84 -44 -93 -54 -92 -102 1 -56 53 -107 109 -107 21 0 41 5 44 10 13 21 79 40
136 40 33 0 59 4 59 8 0 10 9 10 222 11 156 1 183 -1 220 -18 46 -21 133 -51
148 -51 13 0 51 -18 85 -40 111 -73 234 -90 329 -44 34 17 89 29 170 40 66 9
129 20 139 25 10 6 39 14 65 19 96 18 118 25 99 33 -10 4 -27 2 -37 -3 -10 -6
-31 -10 -45 -10 -37 0 -27 22 16 33 30 7 48 14 124 47 11 5 36 12 55 15 19 4
56 20 81 36 54 34 88 40 39 7 -19 -13 -35 -30 -38 -38 -3 -12 -1 -11 9 2 8 9
37 29 65 45 57 32 114 77 114 91 0 20 27 59 77 112 51 54 62 70 45 70 -13 0
-177 -163 -185 -183 -3 -9 -13 -17 -22 -17 -17 0 -20 16 -5 25 6 3 10 13 10
22 0 14 -2 14 -22 -1 -13 -9 -30 -19 -38 -22 -8 -3 -31 -14 -51 -24 -34 -19
-101 -36 -244 -64 -38 -8 -83 -21 -100 -30 -16 -9 -38 -16 -48 -16 -10 0 -30
-6 -45 -14 -24 -13 -104 -27 -223 -40 -20 -2 -42 -7 -48 -10 -6 -4 -27 -8 -48
-10 -35 -3 -75 7 -235 53 -49 14 -68 16 -72 8 -3 -9 -5 -9 -5 0 -1 6 17 24 39
41 22 16 37 32 33 35 -3 4 0 13 6 21 17 20 5 52 -35 100 -19 22 -34 44 -34 50
0 5 -9 28 -19 50 -26 53 -62 146 -67 170 -2 10 -9 25 -15 32 -31 37 50 36 87
0 8 -9 22 -16 30 -16 11 0 14 -12 13 -50 -2 -45 2 -55 30 -84 18 -19 54 -44
79 -56 26 -12 54 -26 62 -30 9 -4 42 -13 73 -20 31 -7 57 -18 57 -23 0 -16
134 -2 168 18 17 11 36 31 43 47 11 26 16 28 66 28 54 0 113 21 113 41 0 6 6
9 14 6 26 -10 56 39 54 89 -1 42 -5 49 -56 90 -29 24 -58 44 -63 44 -5 0 -28
17 -52 39 -48 43 -94 64 -84 37 5 -11 1 -16 -12 -16 -10 0 -22 7 -25 16 -4 12
-10 13 -19 6 -6 -6 -16 -10 -22 -11 -5 0 -29 -5 -53 -12 -23 -6 -45 -9 -48 -6
-9 8 18 90 38 116 10 13 18 29 18 36 0 7 7 18 15 25 8 7 18 30 21 52 4 21 11
41 15 44 21 13 6 50 -36 91 -35 33 -50 41 -63 35 -18 -10 -102 -4 -102 7 0 9
20 37 20 28 0 -20 210 160 210 180 0 5 8 13 18 18 10 6 36 21 57 35 22 14 55
30 75 35 69 20 45 76 -53 125 l-44 22 -67 -21 c-80 -25 -273 -31 -260 -9 5 7
9 20 9 30 1 9 24 50 52 90 65 96 68 103 37 127 l-25 20 -31 -27 c-17 -15 -36
-32 -42 -37 -6 -6 -34 -29 -61 -52 -36 -29 -61 -62 -88 -115 -20 -41 -37 -81
-37 -88 0 -10 -5 -9 -18 3 -10 10 -23 17 -29 17 -6 0 -13 5 -15 12 -3 9 -12 9
-38 0 -18 -7 -39 -12 -46 -12 -17 0 -18 46 -3 110 25 107 5 179 -51 186 -8 1
-28 4 -45 7 -16 3 -43 0 -60 -7z m845 -266 c0 -5 -18 -10 -41 -10 -24 0 -38 4
-34 10 3 6 22 10 41 10 19 0 34 -4 34 -10z m-1441 -171 c31 -48 46 -84 57
-138 3 -13 9 -33 15 -43 12 -22 86 -78 104 -78 6 0 27 -24 46 -52 33 -52 216
-240 278 -287 22 -16 30 -29 26 -40 -11 -25 -26 -120 -32 -189 -4 -54 -1 -68
21 -105 13 -24 32 -50 41 -57 23 -19 62 -21 76 -4 6 8 18 14 26 14 8 0 12 4 9
9 -3 4 1 16 8 27 8 10 12 24 9 31 -3 7 0 13 5 13 17 0 58 -177 65 -275 1 -16
6 -35 10 -42 9 -15 -9 -27 -30 -19 -32 13 -266 18 -258 7 10 -17 -11 -13 -25
4 -8 10 -9 15 -2 15 24 0 -6 38 -98 127 -52 51 -105 96 -116 99 -22 6 -71 80
-131 196 -32 61 -43 131 -24 142 9 6 -14 86 -27 96 -4 3 -20 23 -36 45 -16 22
-54 65 -85 96 -40 39 -59 68 -68 100 -15 56 -17 276 -3 315 14 36 26 44 70 44
31 0 39 -6 69 -51z m956 25 c6 -9 31 -18 56 -21 l45 -5 -24 -49 c-13 -26 -25
-59 -26 -73 0 -13 -4 -22 -8 -20 -10 7 -36 -36 -59 -97 -16 -42 -18 -54 -7
-60 10 -7 10 -9 1 -9 -7 0 -13 -11 -13 -25 0 -24 -30 -86 -55 -115 -8 -9 -19
-37 -25 -64 -13 -59 -28 -89 -40 -81 -5 3 -17 -6 -26 -20 -9 -14 -19 -24 -21
-21 -2 2 -7 28 -10 57 -7 68 -13 76 -13 18 -1 -43 -1 -44 -15 -19 -17 29 -20
130 -4 130 5 0 7 5 3 11 -3 6 -2 21 4 32 33 67 82 180 82 191 0 8 -20 32 -45
55 -25 23 -45 43 -45 45 0 2 28 6 62 8 35 3 64 10 66 16 2 7 9 12 15 12 17 0
55 48 67 86 13 38 18 41 35 18z m322 -1 c-72 -79 -166 -163 -184 -163 -12 0
-25 -4 -28 -10 -3 -5 -11 -10 -16 -10 -5 0 -2 11 7 25 9 14 14 28 10 32 -3 3
-1 11 4 18 5 6 13 29 18 51 8 38 8 39 72 50 80 14 125 16 117 7z m-687 -232
c0 -33 5 -82 12 -110 9 -42 9 -56 -3 -77 -7 -15 -14 -32 -14 -38 -1 -6 -4 -18
-7 -26 -23 -66 -30 -87 -31 -97 -1 -17 1 -17 -60 13 -59 30 -130 99 -185 182
-58 86 -58 86 -33 72 27 -14 81 -4 81 16 0 8 5 14 11 14 7 0 37 17 68 38 54
36 123 69 149 71 8 1 12 -17 12 -58z m548 -191 c-8 -25 -7 -34 7 -49 9 -11 12
-22 7 -25 -5 -3 -21 -29 -35 -58 -22 -44 -33 -94 -36 -165 -1 -6 -19 -14 -41
-18 -31 -5 -38 -10 -31 -19 8 -10 4 -16 -14 -24 -27 -12 -33 -4 -12 17 10 11
8 12 -9 3 -26 -14 -104 -4 -104 14 0 7 -9 15 -19 19 -23 7 -23 60 0 60 8 0 15
11 17 25 3 25 17 63 33 90 6 8 17 32 26 53 15 36 17 36 30 17 20 -28 47 -25
77 10 19 23 98 79 113 80 1 0 -3 -14 -9 -30z m-248 -109 c0 -11 -4 -23 -10
-26 -6 -4 -10 5 -10 19 0 14 5 26 10 26 6 0 10 -9 10 -19z m-220 -267 c0 -14
-52 -83 -63 -84 -10 0 3 150 16 174 8 17 12 13 28 -30 11 -27 19 -54 19 -60z
m750 32 c31 -2 100 -25 120 -40 8 -6 16 -22 18 -35 2 -24 2 -24 -18 -6 -11 10
-20 14 -20 9 0 -5 9 -15 20 -22 11 -7 20 -16 20 -21 0 -10 -45 -26 -102 -36
-35 -5 -38 -4 -44 22 -9 35 -42 102 -63 127 -15 18 -15 19 14 11 17 -4 41 -8
55 -9z m-194 -53 c40 -56 40 -56 -7 -48 -54 9 -66 12 -104 23 l-30 9 30 13
c17 6 39 16 50 20 32 14 40 12 61 -17z m-151 -69 c28 -3 163 -49 173 -59 3 -2
-1 -11 -8 -20 -19 -22 -79 -18 -136 9 -27 14 -62 30 -78 36 -18 6 -26 15 -23
24 3 8 1 17 -6 20 -7 4 2 3 18 0 17 -4 44 -8 60 -10z m494 -59 c-3 -8 -61 -34
-78 -35 -2 0 11 11 30 24 34 24 53 29 48 11z m386 -245 c-15 -24 -185 -96
-185 -78 0 5 13 13 28 19 15 5 54 22 87 38 66 32 79 36 70 21z m-200 -90 c3
-5 -2 -10 -12 -10 -11 0 -28 -7 -39 -15 -22 -17 -48 -20 -39 -5 6 10 60 37 77
39 4 1 10 -3 13 -9z"/>
<path d="M1342 2327 c-12 -134 -70 -246 -189 -365 l-66 -65 7 65 7 65 -51 47
c-64 56 -104 63 -113 17 -7 -36 2 -101 15 -101 5 0 7 -4 4 -9 -11 -18 7 -42
50 -67 24 -14 44 -29 44 -33 0 -9 -59 -38 -93 -46 -36 -7 -77 -51 -77 -80 0
-28 48 -75 59 -57 6 10 11 10 21 -3 13 -15 76 -15 101 0 5 4 20 8 32 9 12 2
32 6 45 10 34 11 27 -4 -27 -57 -69 -68 -126 -205 -138 -332 l-8 -80 -29 45
c-98 151 -127 188 -187 243 -37 33 -111 108 -164 167 -90 102 -146 144 -202
154 -12 3 -30 9 -40 14 -10 5 -59 13 -110 16 -81 7 -96 5 -132 -14 -79 -40
-78 -78 9 -225 26 -44 57 -101 69 -127 12 -25 29 -52 37 -58 23 -20 18 23 -6
45 -23 21 -26 45 -6 45 18 0 39 -27 31 -40 -3 -5 5 -21 19 -34 16 -14 26 -34
26 -51 0 -34 21 -97 35 -107 6 -5 6 -8 -2 -8 -7 0 -12 -16 -11 -41 0 -43 37
-99 64 -99 8 0 14 -6 14 -14 0 -7 7 -19 15 -26 8 -6 14 -15 13 -18 -3 -16 16
-89 28 -107 21 -30 17 -43 -11 -37 -18 3 -25 0 -25 -11 0 -35 21 -66 66 -97
26 -17 73 -54 104 -81 60 -52 90 -65 68 -29 -7 10 -9 22 -6 25 8 8 78 -27 131
-66 22 -16 43 -29 48 -29 4 0 43 -22 86 -48 43 -27 105 -59 138 -72 33 -13 65
-27 72 -32 7 -6 17 -7 22 -4 6 4 27 -8 48 -26 21 -19 49 -39 63 -45 31 -14 87
-27 78 -18 -4 4 7 17 25 29 17 12 33 31 35 41 5 27 42 66 62 64 26 -2 38 1 52
14 26 24 94 64 130 76 21 7 40 17 43 22 4 5 17 9 30 9 13 0 25 5 27 10 2 6 21
13 43 16 35 5 182 69 195 85 3 3 19 13 35 22 62 33 -5 16 -90 -23 -49 -22 -90
-38 -93 -35 -11 10 23 35 101 73 73 35 125 72 102 72 -11 0 -198 -80 -210 -90
-5 -5 -53 -25 -105 -46 -52 -20 -99 -41 -104 -45 -6 -5 -20 -9 -32 -9 -13 0
-26 -4 -29 -10 -3 -5 -15 -10 -27 -10 -11 0 -37 -9 -57 -19 -57 -31 -174 -71
-204 -71 -16 0 -37 -4 -47 -10 -13 -7 -31 -5 -59 5 -23 8 -44 14 -46 14 -13 1
-72 35 -93 54 -12 11 -22 17 -22 13 0 -4 -13 1 -30 11 -16 9 -30 20 -30 24 0
4 -17 13 -37 19 -21 7 -45 18 -53 25 -35 28 -122 75 -139 75 -23 0 -111 48
-111 61 0 5 -5 9 -12 9 -6 0 -1 -11 11 -24 26 -28 115 -76 140 -76 10 0 30
-14 46 -30 35 -37 31 -37 -30 -4 -35 20 -49 24 -55 14 -5 -9 -9 -9 -14 -1 -4
6 -1 11 6 11 8 1 5 7 -7 16 -11 8 -30 12 -42 9 -12 -3 -25 -1 -28 5 -4 6 1 7
12 4 10 -3 0 10 -22 29 -40 35 -40 35 -21 56 10 11 23 18 29 14 5 -3 -12 23
-39 59 -27 35 -55 75 -63 88 -13 23 -13 24 3 11 25 -21 29 -8 6 22 -11 14 -20
29 -20 33 0 4 -7 16 -17 26 -19 21 -38 53 -53 88 -5 14 -15 32 -20 40 -6 8
-15 26 -20 39 -6 13 -13 21 -17 18 -7 -8 16 -66 35 -90 19 -22 10 -32 -17 -17
-23 12 -28 1 -9 -18 9 -9 9 -12 1 -12 -17 0 -21 10 -28 69 -3 30 -12 66 -20
82 -21 40 -18 46 10 19 l25 -23 -20 41 c-11 23 -20 45 -20 50 0 5 -11 19 -25
32 -14 13 -25 30 -25 38 0 7 -10 22 -22 32 -13 10 -20 21 -17 25 8 8 70 -45
64 -55 -6 -10 33 -45 42 -37 3 4 1 7 -5 7 -6 0 -13 13 -17 29 -3 16 -13 35
-21 42 -22 18 -50 78 -59 124 -4 22 -11 46 -17 52 -14 17 8 70 34 84 10 5 35
7 55 3 26 -5 34 -4 29 5 -6 9 0 10 21 5 15 -4 33 -9 38 -13 6 -3 16 -6 23 -7
54 -9 108 -56 182 -159 24 -33 74 -90 112 -128 37 -37 68 -73 68 -81 0 -7 9
-25 21 -40 28 -35 4 -34 -34 1 -15 16 -26 21 -22 13 3 -8 33 -40 67 -70 33
-30 70 -66 82 -79 12 -14 36 -39 54 -57 23 -24 32 -41 32 -66 0 -32 15 -108
44 -231 14 -58 48 -108 70 -102 52 15 51 14 29 38 -21 22 -28 49 -41 163 l-7
61 42 -32 c55 -42 135 -79 200 -95 46 -10 55 -10 69 4 8 9 23 16 32 16 35 0
123 99 115 129 -3 10 2 32 11 49 18 34 21 72 7 72 -5 0 -12 -6 -14 -12 -3 -7
-6 10 -6 39 -1 29 -6 63 -12 76 -8 18 -7 36 4 73 l16 49 1 -55 c1 -48 3 -52
11 -30 7 15 8 71 5 139 l-5 113 -42 54 c-55 71 -97 107 -121 101 -46 -12 14
49 77 79 19 9 35 19 36 23 0 3 2 14 4 24 2 9 -3 17 -11 17 -8 0 -11 6 -8 15 4
10 0 15 -11 15 -14 0 -15 3 -6 14 9 10 9 16 1 21 -15 9 -122 -4 -137 -17 -7
-6 -13 -7 -13 -4 0 4 22 29 49 55 27 26 58 66 70 89 11 22 25 43 31 47 25 16
-2 87 -58 147 -23 26 -50 30 -36 6 4 -7 2 -8 -5 -4 -6 4 -9 11 -6 16 3 5 2 11
-3 14 -5 3 -9 0 -10 -7z m-1162 -708 c0 -17 -24 -4 -36 20 -7 13 -17 28 -23
34 -6 6 -11 16 -11 22 1 13 70 -61 70 -76z m1231 49 c8 -7 22 -22 29 -32 13
-18 13 -19 -1 -14 -15 6 -15 2 -2 -43 11 -37 14 -96 11 -246 -3 -193 -4 -199
-30 -249 -28 -53 -48 -70 -65 -53 -6 6 -17 12 -24 14 -42 10 -59 19 -59 31 0
8 -5 14 -11 14 -6 0 -9 -6 -6 -13 4 -11 -4 -11 -41 1 -68 22 -81 46 -34 62 76
28 149 96 165 154 20 72 19 110 -3 139 -12 15 -30 27 -40 27 -10 0 -21 4 -25
9 -3 5 -30 13 -60 16 -59 8 -68 20 -35 50 10 9 18 20 17 24 -1 3 8 17 20 31
12 14 31 36 43 49 13 16 37 27 63 32 65 10 72 10 88 -3z m-161 -4 c0 -3 -16
-22 -35 -42 -19 -20 -35 -40 -35 -44 0 -17 -52 -82 -76 -94 -24 -13 -25 -12
-19 7 15 47 165 205 165 173z m-44 -215 c3 -6 14 -9 23 -6 10 2 19 -1 20 -7
14 -82 12 -108 -10 -140 -42 -61 -136 -100 -157 -65 -30 47 -1 180 47 216 20
15 68 17 77 2z m-458 -695 c31 -18 47 -23 52 -15 8 14 36 5 44 -14 3 -8 20
-21 38 -31 36 -18 98 -73 98 -87 0 -9 -111 49 -170 89 -19 13 -39 24 -45 24
-12 1 -83 60 -71 60 5 0 29 -12 54 -26z"/>
<path d="M2302 2272 c-37 -45 -64 -185 -67 -351 l-1 -83 -34 -15 c-22 -9 -55
-13 -87 -11 -59 5 -63 0 -63 -83 0 -48 16 -71 71 -98 23 -11 30 -11 55 5 15
11 43 24 61 30 31 11 32 10 42 -19 6 -16 11 -45 11 -64 0 -18 7 -50 15 -70 21
-50 11 -108 -35 -208 -57 -122 -60 -132 -60 -190 0 -30 -3 -55 -8 -55 -4 0 -9
-45 -10 -100 -3 -96 -2 -103 22 -135 33 -43 62 -36 85 21 22 54 63 124 72 124
5 0 11 23 15 51 4 30 16 62 28 76 l22 25 12 -66 c13 -68 7 -162 -10 -172 -5
-3 -18 2 -28 11 -13 12 -18 13 -16 3 2 -11 18 -84 21 -98 19 -83 40 -113 86
-125 24 -6 27 -3 34 27 13 57 17 268 6 282 -6 7 -12 32 -15 57 -2 24 -16 82
-30 128 -14 47 -26 92 -26 102 0 15 39 81 111 186 16 23 29 46 29 52 0 6 5 11
10 11 6 0 10 6 10 13 0 6 13 39 29 71 16 33 27 65 24 73 -8 20 10 16 37 -9 23
-22 35 -23 183 -26 128 -3 171 0 225 15 51 13 97 17 195 15 87 -2 133 1 143 9
8 6 14 8 14 4 0 -4 7 -2 15 5 34 28 16 77 -55 153 -33 35 -52 47 -73 47 -31 0
-126 -28 -142 -41 -5 -5 -28 -9 -52 -9 -38 0 -109 -28 -208 -83 -21 -11 -172
-21 -161 -10 3 3 1 12 -5 20 -18 21 -2 119 30 182 41 80 71 149 71 163 0 7 9
24 20 38 24 30 25 44 5 60 -13 11 -23 4 -62 -39 -92 -102 -103 -115 -103 -125
0 -6 -14 -26 -30 -45 -28 -31 -34 -44 -31 -63 0 -4 -6 -22 -14 -42 -18 -43
-28 -136 -16 -155 6 -9 5 -24 -2 -40 -14 -32 -68 -115 -78 -119 -5 -2 -26 -40
-49 -84 -22 -45 -52 -94 -65 -110 -14 -16 -25 -35 -25 -41 0 -20 -19 7 -23 33
-2 14 -8 33 -12 44 -5 12 0 43 13 85 12 37 22 83 22 102 0 19 5 51 11 72 9 33
8 42 -7 58 -9 11 -15 20 -13 22 2 1 18 9 34 17 87 42 132 89 119 124 -4 11
-10 12 -32 1 -76 -36 -103 -44 -164 -47 -75 -4 -71 -7 -83 68 -4 26 -2 44 4
49 6 3 11 16 11 29 0 12 5 27 12 34 7 7 8 12 4 12 -5 0 -3 6 3 14 15 17 24
163 11 171 -5 3 -7 11 -4 18 2 7 -3 21 -13 29 -17 15 -20 15 -41 -10z m114
-548 c-4 -19 -10 -43 -15 -52 -4 -9 -6 -23 -3 -31 3 -8 0 -11 -7 -7 -6 4 -11
13 -11 21 0 8 -4 16 -9 19 -11 7 -1 -45 12 -61 7 -9 5 -13 -6 -13 -18 0 -34
80 -21 102 5 7 9 17 9 21 0 6 37 31 53 36 2 1 1 -15 -2 -35z m15 -171 c-9 -15
-10 -13 -11 13 0 17 3 47 8 65 7 33 7 33 10 -13 2 -26 -2 -56 -7 -65z m-51
-261 c0 -10 5 -23 10 -28 7 -7 3 -26 -12 -60 -13 -27 -23 -53 -24 -59 0 -5
-11 -28 -25 -50 -22 -37 -24 -38 -27 -16 -5 35 8 130 18 136 5 3 7 12 4 20 -4
8 1 17 9 21 8 3 18 16 21 30 7 28 26 32 26 6z"/>
<path d="M2905 1314 c19 -33 35 -64 35 -71 0 -6 8 -19 18 -29 20 -21 21 -122
2 -233 -7 -38 -10 -81 -6 -96 9 -33 95 -127 156 -168 25 -16 64 -48 86 -69 38
-36 42 -38 47 -19 3 12 13 20 26 20 12 1 30 1 41 2 11 0 18 4 15 10 -7 11 8
12 19 2 4 -5 17 -8 29 -8 12 -1 28 -4 35 -9 8 -4 3 11 -10 34 -13 23 -30 55
-39 71 -9 16 -22 36 -29 44 -7 8 -9 15 -6 15 15 0 -118 152 -140 160 -13 5
-39 7 -59 5 -51 -7 -68 13 -69 80 0 53 1 55 56 106 l57 52 -41 49 c-43 51
-103 88 -153 94 -16 2 -47 7 -68 10 l-38 6 36 -58z"/>
</g>
</svg>
